# xmcd CD database file
#
# Track frame offsets:
#	150
#	14878
#	28427
#	41932
#	63079
#	77610
#	91629
#	106122
#	118276
#	130886
#	142948
#	155547
#	169733
#	183092
#	195712
#	207985
#	222201
#	235369
#	248650
#	263108
#	277665
#	291368
#
# Disc length: 4064 seconds
#
# Revision: 0
# Processed by: cddbd v1.5.2PL0 Copyright (c) Steve Scherf et al.
# Submitted via: CDex 1.51
#
DISCID=3d0fde16
DTITLE=Red Nichols - The Complete Brunswick Recordings - Volume 6
DYEAR=1900
DGENRE=Jazz
TTITLE0=The Sheik
TTITLE1=Shim-Me-Sha-Wabble 1
TTITLE2=Shim-Me-Sha-Wabble 2
TTITLE3=Some Of These Days
TTITLE4=Carolina In The Morning
TTITLE5=Who?
TTITLE6=By The Shalimar
TTITLE7=On Revival Day (Part 1) 1
TTITLE8=On Revival Day (Part 1) 2
TTITLE9=On Revival Day (Part 2) 1
TTITLE10=On Revival Day (Part 2) 2
TTITLE11=Embraceable You
TTITLE12=I Got Rhythm
TTITLE13=A Girl Friend Of A Boy Friend Of Mine
TTITLE14=Sweet Jennie Lee
TTITLE15="Linda"
TTITLE16=Yours And Mine
TTITLE17=My Honey's Lovin' Arms
TTITLE18=Rockin' Chair
TTITLE19=Bug-A-Boo
TTITLE20=Corinne Corinna
TTITLE21=How Come You Do Me Like You Do
EXTD=
EXTT0=
EXTT1=
EXTT2=
EXTT3=
EXTT4=
EXTT5=
EXTT6=
EXTT7=
EXTT8=
EXTT9=
EXTT10=
EXTT11=
EXTT12=
EXTT13=
EXTT14=
EXTT15=
EXTT16=
EXTT17=
EXTT18=
EXTT19=
EXTT20=
EXTT21=
PLAYORDER=
